<svg xmlns="http://www.w3.org/2000/svg" version="1.1" xmlns:xlink="http://www.w3.org/1999/xlink" xmlns:svgjs="http://svgjs.com/svgjs" width="461.629" height="461.629"><svg version="1.1" id="SvgjsSvg1000" xmlns="http://www.w3.org/2000/svg" xmlns:xlink="http://www.w3.org/1999/xlink" x="0px" y="0px" viewBox="0 0 461.629 461.629" style="enable-background:new 0 0 461.629 461.629;" xml:space="preserve">
<g>
	<path d="M399.43,165.513L236.118,2.197C234.711,0.79,232.804,0,230.814,0s-3.897,0.79-5.303,2.197L62.199,165.513
		c-2.929,2.929-2.929,7.678,0,10.606l22.625,22.625c2.929,2.929,7.678,2.929,10.606,0l7.884-7.884v143.768h-8.5
		c-4.142,0-7.5,3.358-7.5,7.5v32c0,4.142,3.358,7.5,7.5,7.5h104.5v72.5c0,4.142,3.358,7.5,7.5,7.5h48c4.142,0,7.5-3.358,7.5-7.5
		v-72.5h104.5c4.142,0,7.5-3.358,7.5-7.5v-32c0-4.142-3.358-7.5-7.5-7.5h-8.5V190.861l7.884,7.884
		c1.464,1.464,3.384,2.197,5.303,2.197s3.839-0.732,5.303-2.197l22.625-22.625C402.359,173.191,402.359,168.442,399.43,165.513z
		 M247.314,446.629h-33v-65h33V446.629z M359.314,366.629h-257v-17h257V366.629z M343.314,334.629h-225V175.861l112.5-112.497
		l112.5,112.497V334.629z M371.502,182.835L236.118,47.455c-1.464-1.464-3.384-2.197-5.303-2.197s-3.839,0.732-5.303,2.197
		L90.127,182.835l-12.019-12.019L230.814,18.107l152.706,152.709L371.502,182.835z"></path>
	<path d="M183.314,198.129c0,26.191,21.309,47.5,47.5,47.5s47.5-21.309,47.5-47.5s-21.309-47.5-47.5-47.5
		S183.314,171.938,183.314,198.129z M263.314,198.129c0,17.92-14.58,32.5-32.5,32.5s-32.5-14.58-32.5-32.5s14.58-32.5,32.5-32.5
		S263.314,180.208,263.314,198.129z"></path>
	<path d="M230.814,262.629c-12.958,0-23.5,10.542-23.5,23.5s10.542,23.5,23.5,23.5s23.5-10.542,23.5-23.5
		S243.772,262.629,230.814,262.629z M230.814,294.629c-4.687,0-8.5-3.813-8.5-8.5s3.813-8.5,8.5-8.5s8.5,3.813,8.5,8.5
		S235.501,294.629,230.814,294.629z"></path>
</g>
<g>
</g>
<g>
</g>
<g>
</g>
<g>
</g>
<g>
</g>
<g>
</g>
<g>
</g>
<g>
</g>
<g>
</g>
<g>
</g>
<g>
</g>
<g>
</g>
<g>
</g>
<g>
</g>
<g>
</g>
</svg><style>@media (prefers-color-scheme: light) { :root { filter: none; } }
@media (prefers-color-scheme: dark) { :root { filter: invert(100%); } }
</style></svg>