<?xml version="1.0" standalone="no"?>
<!DOCTYPE svg PUBLIC "-//W3C//DTD SVG 20010904//EN"
 "http://www.w3.org/TR/2001/REC-SVG-20010904/DTD/svg10.dtd">
<svg version="1.0" xmlns="http://www.w3.org/2000/svg"
 width="225.000000pt" height="225.000000pt" viewBox="0 0 225.000000 225.000000"
 preserveAspectRatio="xMidYMid meet">
<metadata>
Created by potrace 1.14, written by Peter Selinger 2001-2017
</metadata>
<g transform="translate(0.000000,225.000000) scale(0.100000,-0.100000)"
fill="#000000" stroke="none">
<path d="M888 2059 c-123 -105 -237 -203 -253 -218 -17 -14 -59 -51 -95 -81
-36 -30 -70 -59 -76 -65 -6 -5 -33 -29 -60 -52 -47 -39 -67 -57 -124 -106 -14
-12 -54 -47 -90 -77 -36 -30 -78 -66 -94 -80 -84 -73 -105 -112 -87 -170 17
-57 61 -85 128 -81 18 1 134 87 163 121 3 3 97 86 210 185 113 99 210 184 216
190 6 5 39 35 74 65 35 30 68 60 74 65 74 69 246 215 252 215 5 0 27 -17 50
-38 22 -20 73 -66 114 -102 81 -71 136 -119 154 -135 6 -5 65 -57 131 -115 66
-57 122 -107 125 -110 3 -3 77 -68 165 -145 88 -77 166 -146 174 -153 51 -49
111 -58 159 -22 44 32 58 71 43 118 -15 49 -18 52 -151 166 -134 115 -130 112
-280 240 -63 54 -140 120 -170 146 -30 26 -93 80 -140 120 -47 40 -107 92
-135 115 -170 147 -229 195 -241 195 -7 0 -113 -86 -236 -191z m590 -197 c400
-343 396 -339 563 -483 70 -60 129 -117 132 -128 5 -20 -20 -51 -41 -51 -9 0
-140 107 -187 153 -6 7 -36 32 -65 57 -29 25 -63 54 -75 65 -11 11 -54 49 -95
85 -41 35 -77 67 -80 70 -3 3 -59 53 -125 110 -66 58 -122 107 -125 110 -3 3
-58 51 -122 108 -78 69 -124 102 -136 100 -11 -2 -48 -28 -83 -59 -35 -31
-129 -114 -209 -184 -80 -70 -161 -142 -180 -159 -38 -34 -246 -217 -349 -306
-35 -30 -84 -74 -110 -97 -60 -55 -80 -62 -102 -34 -10 12 -15 29 -12 37 4 11
384 341 708 616 11 9 90 78 175 152 85 74 158 135 163 135 4 1 164 -133 355
-297z"/>
<path d="M1040 1491 c-110 -23 -232 -118 -280 -217 -42 -86 -56 -194 -36 -284
18 -82 125 -229 178 -246 22 -6 48 11 48 33 0 7 -24 37 -53 66 -80 79 -102
131 -102 247 0 84 3 101 27 145 120 228 416 256 572 54 54 -69 70 -133 62
-244 -7 -100 -2 -111 38 -101 19 5 25 16 34 58 39 198 -70 398 -255 468 -62
23 -174 33 -233 21z"/>
<path d="M312 1188 c-17 -17 -17 -1159 0 -1176 18 -18 482 -17 500 2 9 9 14
35 13 75 l-1 61 327 0 c350 0 359 1 344 50 -7 23 -1 22 -165 24 l-125 1 -3 38
-3 37 73 0 c111 1 177 38 212 120 17 42 16 33 16 124 0 73 0 74 30 86 58 24
58 66 0 90 -22 9 -33 22 -37 41 -8 44 -75 113 -121 127 -115 35 -145 15 -442
-283 -249 -248 -276 -283 -234 -299 9 -3 109 -6 224 -6 l208 0 -1 -35 c-1 -19
-4 -36 -7 -36 -3 -1 -83 -2 -178 -3 -140 -1 -175 -5 -182 -16 -6 -8 -10 -42
-10 -75 l0 -60 -177 1 c-98 1 -183 2 -188 3 -7 1 -10 184 -10 548 0 440 -3
549 -13 560 -17 16 -34 17 -50 1z m1068 -387 c14 -10 32 -38 40 -64 8 -25 18
-49 22 -53 4 -4 3 -13 -4 -21 -6 -8 -12 -55 -13 -111 -2 -177 -1 -176 -347
-177 -147 0 -268 2 -268 5 0 3 94 99 209 214 214 213 250 240 311 230 14 -3
36 -13 50 -23z"/>
<path d="M1292 741 c-8 -4 -12 -19 -10 -32 2 -19 9 -24 33 -24 33 0 45 25 25
50 -14 17 -29 19 -48 6z"/>
<path d="M1884 1188 c-4 -7 -8 -260 -8 -563 l-1 -550 -460 -1 c-554 -2 -502 0
-510 -24 -16 -50 -19 -50 519 -50 377 0 505 3 514 12 17 17 17 1159 0 1176
-15 15 -45 15 -54 0z"/>
</g>
</svg>
