<?xml version="1.0" standalone="no"?>
<!DOCTYPE svg PUBLIC "-//W3C//DTD SVG 20010904//EN"
 "http://www.w3.org/TR/2001/REC-SVG-20010904/DTD/svg10.dtd">
<svg version="1.0" xmlns="http://www.w3.org/2000/svg"
 width="700.000000pt" height="700.000000pt" viewBox="0 0 700.000000 700.000000"
 preserveAspectRatio="xMidYMid meet">
<metadata>
Created by potrace 1.14, written by Peter Selinger 2001-2017
</metadata>
<g transform="translate(0.000000,700.000000) scale(0.100000,-0.100000)"
fill="#000000" stroke="none">
<path d="M3455 6991 c-11 -5 -587 -577 -1280 -1270 l-1260 -1261 0 -50 0 -50
190 -191 c105 -105 205 -198 224 -206 52 -22 85 -9 167 69 l74 71 0 -1085 0
-1085 -85 -5 c-65 -3 -92 -9 -113 -25 -48 -36 -53 -73 -50 -353 3 -228 5 -259
21 -284 38 -57 16 -56 882 -56 l795 0 0 -556 c0 -609 -1 -602 59 -637 26 -15
70 -17 421 -17 351 0 395 2 421 17 60 35 59 28 59 637 l0 556 795 0 c866 0
844 -1 882 56 16 25 18 56 21 284 3 280 -2 317 -50 353 -21 16 -48 22 -113 25
l-85 5 0 1085 0 1085 74 -71 c82 -78 115 -91 167 -69 19 8 120 101 224 206
l190 191 0 50 0 50 -1266 1266 c-1199 1199 -1268 1266 -1305 1270 -21 2 -48 0
-59 -5z m1205 -1426 l1155 -1155 -90 -90 -90 -90 -1025 1024 c-564 563 -1036
1031 -1050 1040 -13 9 -40 16 -60 16 -20 0 -47 -7 -60 -16 -14 -9 -486 -477
-1050 -1040 l-1025 -1024 -90 90 -90 90 1155 1155 c635 635 1157 1155 1160
1155 3 0 525 -520 1160 -1155z m-303 -387 l853 -853 0 -1197 0 -1198 -1710 0
-1710 0 0 1197 0 1198 852 852 c469 469 855 853 858 853 3 0 389 -384 857
-852z m1093 -3608 l0 -130 -1950 0 -1950 0 0 130 0 130 1950 0 1950 0 0 -130z
m-1700 -850 l0 -490 -250 0 -250 0 0 490 0 490 250 0 250 0 0 -490z"/>
<path d="M3430 4713 c-193 -24 -368 -118 -484 -259 -295 -358 -178 -900 239
-1103 120 -59 199 -74 347 -68 99 4 138 10 200 31 191 67 329 193 419 381 116
243 80 537 -92 753 -91 114 -232 206 -371 241 -78 20 -201 32 -258 24z m179
-238 c225 -53 381 -250 381 -480 0 -193 -111 -366 -287 -446 -323 -148 -693
90 -693 446 1 135 47 250 139 344 123 124 295 175 460 136z"/>
<path d="M3412 3005 c-75 -21 -109 -41 -161 -94 -173 -172 -128 -453 90 -568
49 -26 63 -28 159 -28 96 0 110 3 158 28 199 105 258 355 124 532 -86 115
-236 167 -370 130z m167 -243 c14 -10 32 -35 40 -55 27 -73 -10 -145 -87 -168
-36 -10 -45 -9 -85 10 -132 64 -78 253 67 237 22 -3 51 -13 65 -24z"/>
</g>
</svg>
